<svg width="165" height="204" viewBox="0 0 165 204" fill="none" xmlns="http://www.w3.org/2000/svg">
<rect x="1" y="1" width="163" height="201.077" fill="white" stroke="black" stroke-width="2"/>
<rect x="13.6924" y="13.6924" width="137.615" height="175.692" fill="#9D9D9D" stroke="black" stroke-width="2"/>
<path d="M103.712 75.0479V97.2594H100.01V100.961H92.6061V104.663H88.9042V112.067H70.3946V100.961H74.0965V97.2594H77.7985V93.5575H85.2023V89.8556H88.9042V82.4518H85.2023V78.7498H77.7985V82.4518H74.0965V86.1537H70.3946V89.8556H66.6927V86.1537H62.9908V82.4518H59.2888V78.7498H55.5869V75.0479H59.2888V71.346H62.9908V67.6441H70.3946V63.9421H92.6061V67.6441H96.3081V71.346H100.01V75.0479H103.712ZM85.2023 123.173H88.9042V134.279H85.2023V137.981H74.0965V134.279H70.3946V123.173H74.0965V119.471H85.2023V123.173Z" fill="black"/>
</svg>
