<svg width="90" height="117" viewBox="0 0 90 117" fill="none" xmlns="http://www.w3.org/2000/svg">
<rect y="99" width="9" height="9.00014" fill="#A37C56"/>
<rect y="90" width="9" height="9.00014" fill="#A37C56"/>
<rect y="81" width="9" height="9.00014" fill="#A37C56"/>
<rect y="72" width="9" height="9.00014" fill="#A37C56"/>
<rect y="63" width="9" height="9.00014" fill="#A37C56"/>
<rect y="54" width="9" height="9.00014" fill="#A37C56"/>
<rect x="9" y="99" width="9" height="9.00014" fill="#5B4530"/>
<rect x="9" y="90" width="9" height="9.00014" fill="#5B4530"/>
<rect y="108" width="9" height="9.00014" fill="#A37C56"/>
<rect x="9" y="108" width="9" height="9.00014" fill="#5B4530"/>
<rect x="9" y="81" width="9" height="9.00014" fill="#5B4530"/>
<rect x="9" y="72" width="9" height="9.00014" fill="#5B4530"/>
<rect x="9" y="63" width="9" height="9.00014" fill="#5B4530"/>
<rect x="9" y="54" width="9" height="9.00014" fill="#5B4530"/>
<rect y="45" width="9" height="9.00014" fill="#6B0000"/>
<rect y="36" width="9" height="9.00014" fill="#6B0000"/>
<rect y="27" width="9" height="9.00014" fill="#6B0000"/>
<rect y="18" width="9" height="9.00014" fill="#6B0000"/>
<rect y="9" width="9" height="9.00014" fill="#6B0000"/>
<rect width="9" height="9.00014" fill="#6B0000"/>
<rect x="9" y="45" width="9" height="9.00014" fill="#6B0000"/>
<rect x="9" y="36" width="9" height="9.00014" fill="#6B0000"/>
<rect x="9" y="27" width="9" height="9.00014" fill="#6B0000"/>
<rect x="9" y="18" width="9" height="9.00014" fill="#6B0000"/>
<rect x="9" y="9" width="9" height="9.00014" fill="#6B0000"/>
<rect x="9" width="9" height="9.00014" fill="#6B0000"/>
<rect y="45" width="9" height="9.00014" fill="#A37C56"/>
<rect y="36" width="9" height="9.00014" fill="#A37C56"/>
<rect y="27" width="9" height="9.00014" fill="#A37C56"/>
<rect y="18" width="9" height="9.00014" fill="#A37C56"/>
<rect y="9" width="9" height="9.00014" fill="#A37C56"/>
<rect width="9" height="9.00014" fill="#A37C56"/>
<rect x="9" y="45" width="9" height="9.00014" fill="#5B4530"/>
<rect x="9" y="36" width="9" height="9.00014" fill="#5B4530"/>
<rect x="9" y="27" width="9" height="9.00014" fill="#5B4530"/>
<rect x="9" y="18" width="9" height="9.00014" fill="#5B4530"/>
<rect x="9" y="9" width="9" height="9.00014" fill="#5B4530"/>
<rect x="9" width="9" height="9.00014" fill="#5B4530"/>
<rect x="18" y="45" width="9" height="9.00014" fill="black"/>
<rect x="18" y="36" width="9" height="9.00014" fill="white"/>
<rect x="18" y="27" width="9" height="9.00014" fill="black"/>
<rect x="18" y="18" width="9" height="9.00014" fill="white"/>
<rect x="18" y="9" width="9" height="9.00014" fill="black"/>
<rect x="18" width="9" height="9.00014" fill="white"/>
<rect x="27" y="45" width="9" height="9.00014" fill="white"/>
<rect x="27" y="36" width="9" height="9.00014" fill="black"/>
<rect x="27" y="27" width="9" height="9.00014" fill="white"/>
<rect x="27" y="18" width="9" height="9.00014" fill="black"/>
<rect x="27" y="9" width="9" height="9.00014" fill="white"/>
<rect x="27" width="9" height="9.00014" fill="black"/>
<rect x="36" y="45" width="9" height="9.00014" fill="black"/>
<rect x="36" y="36" width="9" height="9.00014" fill="white"/>
<rect x="36" y="27" width="9" height="9.00014" fill="black"/>
<rect x="36" y="18" width="9" height="9.00014" fill="white"/>
<rect x="36" y="9" width="9" height="9.00014" fill="black"/>
<rect x="36" width="9" height="9.00014" fill="white"/>
<rect x="45" y="45" width="9" height="9.00014" fill="white"/>
<rect x="45" y="36" width="9" height="9.00014" fill="black"/>
<rect x="45" y="27" width="9" height="9.00014" fill="white"/>
<rect x="45" y="18" width="9" height="9.00014" fill="black"/>
<rect x="45" y="9" width="9" height="9.00014" fill="white"/>
<rect x="45" width="9" height="9.00014" fill="black"/>
<rect x="54" y="45" width="9" height="9.00014" fill="black"/>
<rect x="54" y="36" width="9" height="9.00014" fill="white"/>
<rect x="54" y="27" width="9" height="9.00014" fill="black"/>
<rect x="54" y="18" width="9" height="9.00014" fill="white"/>
<rect x="54" y="9" width="9" height="9.00014" fill="black"/>
<rect x="54" width="9" height="9.00014" fill="white"/>
<rect x="63" y="45" width="9" height="9.00014" fill="white"/>
<rect x="63" y="36" width="9" height="9.00014" fill="black"/>
<rect x="63" y="27" width="9" height="9.00014" fill="white"/>
<rect x="63" y="18" width="9" height="9.00014" fill="black"/>
<rect x="63" y="9" width="9" height="9.00014" fill="white"/>
<rect x="63" width="9" height="9.00014" fill="black"/>
<rect x="72" y="45" width="9" height="9.00014" fill="black"/>
<rect x="72" y="36" width="9" height="9.00014" fill="white"/>
<rect x="72" y="27" width="9" height="9.00014" fill="black"/>
<rect x="72" y="18" width="9" height="9.00014" fill="white"/>
<rect x="72" y="9" width="9" height="9.00014" fill="black"/>
<rect x="72" width="9" height="9.00014" fill="white"/>
<rect x="81" y="45" width="9" height="9.00014" fill="white"/>
<rect x="81" y="36" width="9" height="9.00014" fill="black"/>
<rect x="81" y="27" width="9" height="9.00014" fill="white"/>
<rect x="81" y="18" width="9" height="9.00014" fill="black"/>
<rect x="81" y="9" width="9" height="9.00014" fill="white"/>
<rect x="81" width="9" height="9.00014" fill="black"/>
</svg>
