<svg width="59" height="86" viewBox="0 0 59 86" fill="none" xmlns="http://www.w3.org/2000/svg">
<rect y="72.1116" width="6.55557" height="6.55567" fill="#515151"/>
<rect y="65.5559" width="6.55557" height="6.55567" fill="#515151"/>
<rect y="59.0002" width="6.55557" height="6.55567" fill="#515151"/>
<rect y="52.4446" width="6.55557" height="6.55567" fill="#515151"/>
<rect y="45.8889" width="6.55557" height="6.55567" fill="#515151"/>
<rect y="39.3337" width="6.55557" height="6.55567" fill="#515151"/>
<rect x="6.55469" y="72.1116" width="6.55557" height="6.55567" fill="#9B9B9B"/>
<rect x="6.55469" y="65.5559" width="6.55557" height="6.55567" fill="#9B9B9B"/>
<rect y="78.6667" width="6.55557" height="6.55567" fill="#515151"/>
<rect x="6.55469" y="78.6667" width="6.55557" height="6.55567" fill="#9B9B9B"/>
<rect x="6.55469" y="59.0002" width="6.55557" height="6.55567" fill="#9B9B9B"/>
<rect x="6.55469" y="52.4446" width="6.55557" height="6.55567" fill="#9B9B9B"/>
<rect x="6.55469" y="45.8889" width="6.55557" height="6.55567" fill="#9B9B9B"/>
<rect x="6.55469" y="39.3337" width="6.55557" height="6.55567" fill="#9B9B9B"/>
<rect y="32.7781" width="6.55557" height="6.55567" fill="#E40000"/>
<rect y="26.2222" width="6.55557" height="6.55567" fill="#E40000"/>
<rect y="19.6665" width="6.55557" height="6.55567" fill="#E40000"/>
<rect y="13.1116" width="6.55557" height="6.55567" fill="#E40000"/>
<rect y="6.55566" width="6.55557" height="6.55567" fill="#E40000"/>
<rect width="6.55557" height="6.55567" fill="#E40000"/>
<rect x="6.55469" y="32.7781" width="6.55557" height="6.55567" fill="#E40000"/>
<rect x="6.55469" y="26.2222" width="6.55557" height="6.55567" fill="#E40000"/>
<rect x="6.55469" y="19.6665" width="6.55557" height="6.55567" fill="#E40000"/>
<rect x="6.55469" y="13.1116" width="6.55557" height="6.55567" fill="#E40000"/>
<rect x="6.55469" y="6.55566" width="6.55557" height="6.55567" fill="#E40000"/>
<rect x="6.55469" width="6.55557" height="6.55567" fill="#E40000"/>
<rect y="32.7781" width="6.55557" height="6.55567" fill="#B90303"/>
<rect y="26.2222" width="6.55557" height="6.55567" fill="#B90303"/>
<rect y="19.6665" width="6.55557" height="6.55567" fill="#B90303"/>
<rect y="13.1116" width="6.55557" height="6.55567" fill="#B90303"/>
<rect y="6.55566" width="6.55557" height="6.55567" fill="#B90303"/>
<rect width="6.55557" height="6.55567" fill="#B90303"/>
<rect x="6.55469" y="32.7781" width="6.55557" height="6.55567" fill="#B90303"/>
<rect x="6.55469" y="26.2222" width="6.55557" height="6.55567" fill="#B90303"/>
<rect x="6.55469" y="19.6665" width="6.55557" height="6.55567" fill="#B90303"/>
<rect x="6.55469" y="13.1116" width="6.55557" height="6.55567" fill="#B90303"/>
<rect x="6.55469" y="6.55566" width="6.55557" height="6.55567" fill="#B90303"/>
<rect x="6.55469" width="6.55557" height="6.55567" fill="#B90303"/>
<rect x="13.1113" y="32.7781" width="6.55557" height="6.55567" fill="#E40000"/>
<rect x="13.1113" y="26.2222" width="6.55557" height="6.55567" fill="#E40000"/>
<rect x="13.1113" y="19.6665" width="6.55557" height="6.55567" fill="#E40000"/>
<rect x="13.1113" y="13.1116" width="6.55557" height="6.55567" fill="#E40000"/>
<rect x="13.1113" y="6.55566" width="6.55557" height="6.55567" fill="#E40000"/>
<rect x="13.1113" width="6.55557" height="6.55567" fill="#E40000"/>
<rect x="19.667" y="32.7781" width="6.55557" height="6.55567" fill="#E40000"/>
<rect x="19.667" y="26.2222" width="6.55557" height="6.55567" fill="#E40000"/>
<rect x="19.667" y="19.6665" width="6.55557" height="6.55567" fill="#E40000"/>
<rect x="19.667" y="13.1116" width="6.55557" height="6.55567" fill="#E40000"/>
<rect x="19.667" y="6.55566" width="6.55557" height="6.55567" fill="#E40000"/>
<rect x="26.2227" y="26.2222" width="6.55557" height="6.55567" fill="#E40000"/>
<rect x="26.2227" y="19.6665" width="6.55557" height="6.55567" fill="#E40000"/>
<rect x="26.2227" y="13.1116" width="6.55557" height="6.55567" fill="#E40000"/>
<rect x="26.2227" y="6.55566" width="6.55557" height="6.55567" fill="#E40000"/>
<rect x="32.7783" y="26.2222" width="6.55557" height="6.55567" fill="#E40000"/>
<rect x="32.7783" y="19.6665" width="6.55557" height="6.55567" fill="#E40000"/>
<rect x="32.7783" y="13.1116" width="6.55557" height="6.55567" fill="#E40000"/>
<rect x="39.333" y="19.6665" width="6.55557" height="6.55567" fill="#E40000"/>
<rect x="39.333" y="13.1116" width="6.55557" height="6.55567" fill="#E40000"/>
<rect x="45.8896" y="19.6665" width="6.55557" height="6.55567" fill="#E40000"/>
<rect x="45.8896" y="13.1116" width="6.55557" height="6.55567" fill="#E40000"/>
<rect x="52.4443" y="16.7532" width="6.55557" height="6.55567" fill="#E40000"/>
<rect x="32.7783" y="6.55566" width="6.55557" height="6.55567" fill="#E40000"/>
<rect x="19.667" width="6.55557" height="6.55567" fill="#E40000"/>
</svg>
