<svg width="90" height="63" viewBox="0 0 90 63" fill="none" xmlns="http://www.w3.org/2000/svg">
<rect x="9" y="54" width="9" height="9.00014" fill="#C5AC8E"/>
<rect y="35.999" width="9" height="9.00014" fill="#C5AC8E"/>
<rect x="18" y="54" width="9" height="9.00014" fill="#C5AC8E"/>
<rect x="9" y="44.999" width="9" height="9.00014" fill="#C5AC8E"/>
<rect x="18" y="44.999" width="9" height="9.00014" fill="#C5AC8E"/>
<rect x="45" y="54" width="9" height="9.00014" fill="#C5AC8E"/>
<rect x="54" y="54" width="9" height="9.00014" fill="#C5AC8E"/>
<rect x="45" y="44.999" width="9" height="9.00014" fill="#C5AC8E"/>
<rect x="54" y="44.999" width="9" height="9.00014" fill="#C5AC8E"/>
<rect x="27" y="44.999" width="9" height="9.00014" fill="#C5AC8E"/>
<rect x="36" y="44.999" width="9" height="9.00014" fill="#C5AC8E"/>
<rect x="9" y="35.999" width="9" height="9.00014" fill="#BCE2F0"/>
<rect x="18" y="35.999" width="9" height="9.00014" fill="#BCE2F0"/>
<rect x="45" y="35.999" width="9" height="9.00014" fill="#BCE2F0"/>
<rect x="54" y="35.999" width="9" height="9.00014" fill="#BCE2F0"/>
<rect x="27" y="35.999" width="9" height="9.00014" fill="#BCE2F0"/>
<rect x="36" y="35.999" width="9" height="9.00014" fill="#BCE2F0"/>
<rect x="9" y="27.002" width="9" height="9.00014" fill="#BCE2F0"/>
<rect x="18" y="27.002" width="9" height="9.00014" fill="#BCE2F0"/>
<rect x="45" y="27.002" width="9" height="9.00014" fill="#BCE2F0"/>
<rect x="54" y="27.002" width="9" height="9.00014" fill="#BCE2F0"/>
<rect x="27" y="27.002" width="9" height="9.00014" fill="#BCE2F0"/>
<rect x="36" y="27.002" width="9" height="9.00014" fill="#BCE2F0"/>
<rect x="9" y="18.001" width="9" height="9.00014" fill="#BCE2F0"/>
<rect x="18" y="18.001" width="9" height="9.00014" fill="#BCE2F0"/>
<rect x="45" y="18.001" width="9" height="9.00014" fill="#BCE2F0"/>
<rect x="54" y="18.001" width="9" height="9.00014" fill="#BCE2F0"/>
<rect x="63" y="35.999" width="9" height="9.00014" fill="#C5AC8E"/>
<rect x="63" y="27.002" width="9" height="9.00014" fill="#C5AC8E"/>
<rect x="63" y="18.001" width="9" height="9.00014" fill="#C5AC8E"/>
<rect x="72" y="35.999" width="9" height="9.00014" fill="#C5AC8E"/>
<rect x="72" y="27.002" width="9" height="9.00014" fill="#C5AC8E"/>
<rect x="72" y="18.001" width="9" height="9.00014" fill="black"/>
<rect x="81" y="27.002" width="9" height="9.00014" fill="#C5AC8E"/>
<rect x="81" y="18.001" width="9" height="9.00014" fill="#C5AC8E"/>
<rect x="63" y="9.00098" width="9" height="9.00014" fill="#C5AC8E"/>
<rect x="72" y="9.00098" width="9" height="9.00014" fill="#C5AC8E"/>
<rect x="27" y="18.001" width="9" height="9.00014" fill="#BCE2F0"/>
<rect x="36" y="18.001" width="9" height="9.00014" fill="#BCE2F0"/>
<rect x="18" y="9.00098" width="9" height="9.00014" fill="#BCE2F0"/>
<rect x="45" y="9.00098" width="9" height="9.00014" fill="#BCE2F0"/>
<rect x="27" y="9.00098" width="9" height="9.00014" fill="#BCE2F0"/>
<rect x="36" y="9.00098" width="9" height="9.00014" fill="#BCE2F0"/>
<rect x="27" width="9" height="9.00014" fill="#BCE2F0"/>
<rect x="36" width="9" height="9.00014" fill="#BCE2F0"/>
</svg>
