<svg width="48" height="30" viewBox="0 0 48 30" fill="none" xmlns="http://www.w3.org/2000/svg">
<rect x="36" y="30" width="5.99999" height="6.00009" transform="rotate(-90 36 30)" fill="white"/>
<rect x="42" y="30" width="5.99999" height="6.00009" transform="rotate(-90 42 30)" fill="white"/>
<rect x="30" y="30" width="5.99999" height="6.00009" transform="rotate(-90 30 30)" fill="white"/>
<rect x="24" y="30" width="5.99999" height="6.00009" transform="rotate(-90 24 30)" fill="white"/>
<rect x="18" y="30" width="5.99999" height="6.00009" transform="rotate(-90 18 30)" fill="white"/>
<rect x="12" y="30" width="5.99999" height="6.00009" transform="rotate(-90 12 30)" fill="white"/>
<rect x="6" y="30" width="5.99999" height="6.00009" transform="rotate(-90 6 30)" fill="white"/>
<rect y="30" width="5.99999" height="6.00009" transform="rotate(-90 0 30)" fill="white"/>
<rect x="36" y="24" width="5.99999" height="6.00009" transform="rotate(-90 36 24)" fill="white"/>
<rect x="30" y="24" width="5.99999" height="6.00009" transform="rotate(-90 30 24)" fill="white"/>
<rect x="24" y="24" width="5.99999" height="6.00009" transform="rotate(-90 24 24)" fill="white"/>
<rect x="18" y="24" width="5.99999" height="6.00009" transform="rotate(-90 18 24)" fill="white"/>
<rect x="12" y="24" width="5.99999" height="6.00009" transform="rotate(-90 12 24)" fill="white"/>
<rect x="30" y="18" width="5.99999" height="6.00009" transform="rotate(-90 30 18)" fill="white"/>
<rect x="24" y="18" width="5.99999" height="6.00009" transform="rotate(-90 24 18)" fill="white"/>
<rect x="18" y="18" width="5.99999" height="6.00009" transform="rotate(-90 18 18)" fill="white"/>
<rect x="12" y="18" width="5.99999" height="6.00009" transform="rotate(-90 12 18)" fill="white"/>
<rect x="24" y="12" width="5.99999" height="6.00009" transform="rotate(-90 24 12)" fill="white"/>
<rect x="18" y="12" width="5.99999" height="6.00009" transform="rotate(-90 18 12)" fill="white"/>
<rect x="21.334" y="5.99998" width="5.99999" height="6.00009" transform="rotate(-90 21.334 5.99998)" fill="white"/>
<rect x="6" y="24" width="5.99999" height="6.00009" transform="rotate(-90 6 24)" fill="white"/>
</svg>
