<svg width="30" height="48" viewBox="0 0 30 48" fill="none" xmlns="http://www.w3.org/2000/svg">
<rect y="35.9999" width="5.99999" height="6.00009" fill="white"/>
<rect y="41.9999" width="5.99999" height="6.00009" fill="white"/>
<rect y="30" width="5.99999" height="6.00009" fill="white"/>
<rect y="24" width="5.99999" height="6.00009" fill="white"/>
<rect y="18" width="5.99999" height="6.00009" fill="white"/>
<rect y="12" width="5.99999" height="6.00009" fill="white"/>
<rect y="6" width="5.99999" height="6.00009" fill="white"/>
<rect width="5.99999" height="6.00009" fill="white"/>
<rect x="6" y="35.9999" width="5.99999" height="6.00009" fill="white"/>
<rect x="6" y="30" width="5.99999" height="6.00009" fill="white"/>
<rect x="6" y="24" width="5.99999" height="6.00009" fill="white"/>
<rect x="6" y="18" width="5.99999" height="6.00009" fill="white"/>
<rect x="6" y="12" width="5.99999" height="6.00009" fill="white"/>
<rect x="12" y="30" width="5.99999" height="6.00009" fill="white"/>
<rect x="12" y="24" width="5.99999" height="6.00009" fill="white"/>
<rect x="12" y="18" width="5.99999" height="6.00009" fill="white"/>
<rect x="12" y="12" width="5.99999" height="6.00009" fill="white"/>
<rect x="18" y="24" width="5.99999" height="6.00009" fill="white"/>
<rect x="18" y="18" width="5.99999" height="6.00009" fill="white"/>
<rect x="24" y="21.3333" width="5.99999" height="6.00009" fill="white"/>
<rect x="6" y="6" width="5.99999" height="6.00009" fill="white"/>
</svg>
