<svg width="48" height="30" viewBox="0 0 48 30" fill="none" xmlns="http://www.w3.org/2000/svg">
<rect x="12" width="5.99999" height="6.00009" transform="rotate(90 12 0)" fill="white"/>
<rect x="6" width="5.99999" height="6.00009" transform="rotate(90 6 0)" fill="white"/>
<rect x="18" width="5.99999" height="6.00009" transform="rotate(90 18 0)" fill="white"/>
<rect x="24" width="5.99999" height="6.00009" transform="rotate(90 24 0)" fill="white"/>
<rect x="30" width="5.99999" height="6.00009" transform="rotate(90 30 0)" fill="white"/>
<rect x="36" width="5.99999" height="6.00009" transform="rotate(90 36 0)" fill="white"/>
<rect x="42" width="5.99999" height="6.00009" transform="rotate(90 42 0)" fill="white"/>
<rect x="48" width="5.99999" height="6.00009" transform="rotate(90 48 0)" fill="white"/>
<rect x="12" y="6" width="5.99999" height="6.00009" transform="rotate(90 12 6)" fill="white"/>
<rect x="18" y="6" width="5.99999" height="6.00009" transform="rotate(90 18 6)" fill="white"/>
<rect x="24" y="6" width="5.99999" height="6.00009" transform="rotate(90 24 6)" fill="white"/>
<rect x="30" y="6" width="5.99999" height="6.00009" transform="rotate(90 30 6)" fill="white"/>
<rect x="36" y="6" width="5.99999" height="6.00009" transform="rotate(90 36 6)" fill="white"/>
<rect x="18" y="12" width="5.99999" height="6.00009" transform="rotate(90 18 12)" fill="white"/>
<rect x="24" y="12" width="5.99999" height="6.00009" transform="rotate(90 24 12)" fill="white"/>
<rect x="30" y="12" width="5.99999" height="6.00009" transform="rotate(90 30 12)" fill="white"/>
<rect x="36" y="12" width="5.99999" height="6.00009" transform="rotate(90 36 12)" fill="white"/>
<rect x="24" y="18" width="5.99999" height="6.00009" transform="rotate(90 24 18)" fill="white"/>
<rect x="30" y="18" width="5.99999" height="6.00009" transform="rotate(90 30 18)" fill="white"/>
<rect x="26.667" y="24" width="5.99999" height="6.00009" transform="rotate(90 26.667 24)" fill="white"/>
<rect x="42" y="6" width="5.99999" height="6.00009" transform="rotate(90 42 6)" fill="white"/>
</svg>
