<svg width="30" height="48" viewBox="0 0 30 48" fill="none" xmlns="http://www.w3.org/2000/svg">
<rect x="30" y="12.0001" width="5.99999" height="6.00009" transform="rotate(-180 30 12.0001)" fill="white"/>
<rect x="30" y="6.00009" width="5.99999" height="6.00009" transform="rotate(-180 30 6.00009)" fill="white"/>
<rect x="30" y="18" width="5.99999" height="6.00009" transform="rotate(-180 30 18)" fill="white"/>
<rect x="30" y="24" width="5.99999" height="6.00009" transform="rotate(-180 30 24)" fill="white"/>
<rect x="30" y="30.0001" width="5.99999" height="6.00009" transform="rotate(-180 30 30.0001)" fill="white"/>
<rect x="30" y="36" width="5.99999" height="6.00009" transform="rotate(-180 30 36)" fill="white"/>
<rect x="30" y="42" width="5.99999" height="6.00009" transform="rotate(-180 30 42)" fill="white"/>
<rect x="30" y="48" width="5.99999" height="6.00009" transform="rotate(-180 30 48)" fill="white"/>
<rect x="24" y="12.0001" width="5.99999" height="6.00009" transform="rotate(-180 24 12.0001)" fill="white"/>
<rect x="24" y="18" width="5.99999" height="6.00009" transform="rotate(-180 24 18)" fill="white"/>
<rect x="24" y="24" width="5.99999" height="6.00009" transform="rotate(-180 24 24)" fill="white"/>
<rect x="24" y="30.0001" width="5.99999" height="6.00009" transform="rotate(-180 24 30.0001)" fill="white"/>
<rect x="24" y="36" width="5.99999" height="6.00009" transform="rotate(-180 24 36)" fill="white"/>
<rect x="18" y="18" width="5.99999" height="6.00009" transform="rotate(-180 18 18)" fill="white"/>
<rect x="18" y="24" width="5.99999" height="6.00009" transform="rotate(-180 18 24)" fill="white"/>
<rect x="18" y="30.0001" width="5.99999" height="6.00009" transform="rotate(-180 18 30.0001)" fill="white"/>
<rect x="18" y="36" width="5.99999" height="6.00009" transform="rotate(-180 18 36)" fill="white"/>
<rect x="12" y="24" width="5.99999" height="6.00009" transform="rotate(-180 12 24)" fill="white"/>
<rect x="12" y="30.0001" width="5.99999" height="6.00009" transform="rotate(-180 12 30.0001)" fill="white"/>
<rect x="6" y="26.6667" width="5.99999" height="6.00009" transform="rotate(-180 6 26.6667)" fill="white"/>
<rect x="24" y="42" width="5.99999" height="6.00009" transform="rotate(-180 24 42)" fill="white"/>
</svg>
