<svg width="59" height="42" viewBox="0 0 59 42" fill="none" xmlns="http://www.w3.org/2000/svg">
<g opacity="0.8">
<rect x="5.90039" y="35.4" width="5.9" height="5.90009" fill="white"/>
<rect y="23.5994" width="5.9" height="5.90009" fill="white"/>
<rect x="11.8008" y="35.4" width="5.9" height="5.90009" fill="white"/>
<rect x="5.90039" y="29.4994" width="5.9" height="5.90009" fill="white"/>
<rect x="11.8008" y="29.4994" width="5.9" height="5.90009" fill="white"/>
<rect x="29.5" y="35.4" width="5.9" height="5.90009" fill="white"/>
<rect x="35.4004" y="35.4" width="5.9" height="5.90009" fill="white"/>
<rect x="29.5" y="29.4994" width="5.9" height="5.90009" fill="white"/>
<rect x="35.4004" y="29.4994" width="5.9" height="5.90009" fill="white"/>
<rect x="17.6992" y="29.4994" width="5.9" height="5.90009" fill="white"/>
<rect x="23.5996" y="29.4994" width="5.9" height="5.90009" fill="white"/>
<rect x="5.90039" y="23.5994" width="5.9" height="5.90009" fill="white"/>
<rect x="11.8008" y="23.5994" width="5.9" height="5.90009" fill="white"/>
<rect x="29.5" y="23.5994" width="5.9" height="5.90009" fill="white"/>
<rect x="35.4004" y="23.5994" width="5.9" height="5.90009" fill="white"/>
<rect x="17.6992" y="23.5994" width="5.9" height="5.90009" fill="white"/>
<rect x="23.5996" y="23.5994" width="5.9" height="5.90009" fill="white"/>
<rect x="5.90039" y="17.7013" width="5.9" height="5.90009" fill="white"/>
<rect x="11.8008" y="17.7013" width="5.9" height="5.90009" fill="white"/>
<rect x="29.5" y="17.7013" width="5.9" height="5.90009" fill="white"/>
<rect x="35.4004" y="17.7013" width="5.9" height="5.90009" fill="white"/>
<rect x="17.6992" y="17.7013" width="5.9" height="5.90009" fill="white"/>
<rect x="23.5996" y="17.7013" width="5.9" height="5.90009" fill="white"/>
<rect x="5.90039" y="11.8006" width="5.9" height="5.90009" fill="white"/>
<rect x="11.8008" y="11.8006" width="5.9" height="5.90009" fill="white"/>
<rect x="29.5" y="11.8006" width="5.9" height="5.90009" fill="white"/>
<rect x="35.4004" y="11.8006" width="5.9" height="5.90009" fill="white"/>
<rect x="41.3008" y="23.5994" width="5.9" height="5.90009" fill="white"/>
<rect x="41.3008" y="17.7013" width="5.9" height="5.90009" fill="white"/>
<rect x="41.3008" y="11.8006" width="5.9" height="5.90009" fill="white"/>
<rect x="47.1992" y="23.5994" width="5.9" height="5.90009" fill="white"/>
<rect x="47.1992" y="17.7013" width="5.9" height="5.90009" fill="white"/>
<rect x="47.1992" y="11.8006" width="5.9" height="5.90009" fill="black"/>
<rect x="53.0996" y="17.7013" width="5.9" height="5.90009" fill="white"/>
<rect x="53.0996" y="11.8006" width="5.9" height="5.90009" fill="white"/>
<rect x="41.3008" y="5.90063" width="5.9" height="5.90009" fill="white"/>
<rect x="47.1992" y="5.90063" width="5.9" height="5.90009" fill="white"/>
<rect x="17.6992" y="11.8006" width="5.9" height="5.90009" fill="white"/>
<rect x="23.5996" y="11.8006" width="5.9" height="5.90009" fill="white"/>
<rect x="11.8008" y="5.90063" width="5.9" height="5.90009" fill="white"/>
<rect x="29.5" y="5.90063" width="5.9" height="5.90009" fill="white"/>
<rect x="17.6992" y="5.90063" width="5.9" height="5.90009" fill="white"/>
<rect x="23.5996" y="5.90063" width="5.9" height="5.90009" fill="white"/>
<rect x="17.6992" width="5.9" height="5.90009" fill="white"/>
<rect x="23.5996" width="5.9" height="5.90009" fill="white"/>
</g>
</svg>
